<svg width="20" height="21" viewBox="0 0 20 21" fill="none" xmlns="http://www.w3.org/2000/svg">
<path d="M15.8333 3.00004H15V1.33337H13.3333V3.00004H6.66667V1.33337H5V3.00004H4.16667C3.25 3.00004 2.5 3.75004 2.5 4.66671V16.3334C2.5 16.7754 2.67559 17.1993 2.98816 17.5119C3.30072 17.8244 3.72464 18 4.16667 18H15.8333C16.7583 18 17.5 17.2584 17.5 16.3334V4.66671C17.5 4.22468 17.3244 3.80076 17.0118 3.4882C16.6993 3.17564 16.2754 3.00004 15.8333 3.00004ZM15.8333 16.3334H4.16667V8.00004H15.8333V16.3334ZM4.16667 6.33337V4.66671H15.8333V6.33337H4.16667ZM5.83333 9.66671H14.1667V11.3334H5.83333V9.66671ZM5.83333 13H11.6667V14.6667H5.83333V13Z" fill="#1E3A8A"/>
</svg>
