<svg width="20" height="21" viewBox="0 0 20 21" fill="none" xmlns="http://www.w3.org/2000/svg">
<path d="M7.582 13.5935C8.88375 14.8952 12.0496 13.84 14.6531 11.2365C17.2566 8.63296 18.3118 5.46716 17.0101 4.16541" stroke="#1E3A8A" stroke-width="2" stroke-linecap="round" stroke-linejoin="round"/>
<path d="M11.412 3.28137L12.0012 3.87063" stroke="#1E3A8A" stroke-width="2" stroke-linecap="round" stroke-linejoin="round"/>
<path d="M9.34979 5.34375L9.93904 5.933" stroke="#1E3A8A" stroke-width="2" stroke-linecap="round" stroke-linejoin="round"/>
<path d="M7.58179 7.70093L8.17104 8.29018" stroke="#1E3A8A" stroke-width="2" stroke-linecap="round" stroke-linejoin="round"/>
<path d="M6.99258 10.6471L7.58183 11.2363" stroke="#1E3A8A" stroke-width="2" stroke-linecap="round" stroke-linejoin="round"/>
<path d="M14.6529 2.39758L15.2422 2.98684" stroke="#1E3A8A" stroke-width="2" stroke-linecap="round" stroke-linejoin="round"/>
<path d="M14.0637 5.93311L15.2422 7.11161" stroke="#1E3A8A" stroke-width="2" stroke-linecap="round" stroke-linejoin="round"/>
<path d="M12.0015 7.99548L13.18 9.17398" stroke="#1E3A8A" stroke-width="2" stroke-linecap="round" stroke-linejoin="round"/>
<path d="M9.64436 9.76331L10.8229 10.9418" stroke="#1E3A8A" stroke-width="2" stroke-linecap="round" stroke-linejoin="round"/>
<path d="M7.58179 15.3612C8.06994 14.8731 8.06995 14.0816 7.58179 13.5935C7.09363 13.1053 6.30218 13.1053 5.81402 13.5935L3.457 15.9505C2.96884 16.4387 2.96884 17.2301 3.457 17.7183C3.94516 18.2064 4.73661 18.2064 5.22477 17.7183L7.58179 15.3612Z" stroke="#1E3A8A" stroke-width="2" stroke-linecap="round" stroke-linejoin="round"/>
</svg>
