<svg width="17" height="16" viewBox="0 0 17 16" fill="none" xmlns="http://www.w3.org/2000/svg">
<g clip-path="url(#clip0_2001_82)">
<path d="M6.07375 0.526248C4.4751 1.08083 3.09643 2.13346 2.14024 3.5295C1.18405 4.92554 0.70074 6.59143 0.761304 8.28245C0.821867 9.97348 1.42311 11.6005 2.47672 12.9246C3.53033 14.2486 4.98077 15.1999 6.615 15.6387C7.9399 15.9806 9.32801 15.9956 10.66 15.6825C11.8666 15.4115 12.9822 14.8317 13.8975 14C14.8501 13.1079 15.5415 11.9731 15.8975 10.7175C16.2844 9.35208 16.3532 7.91616 16.0988 6.52H8.65875V9.60625H12.9675C12.8814 10.0985 12.6969 10.5683 12.4249 10.9875C12.153 11.4068 11.7993 11.7669 11.385 12.0462C10.8589 12.3943 10.2657 12.6285 9.64375 12.7337C9.01993 12.8497 8.38007 12.8497 7.75625 12.7337C7.12399 12.603 6.52587 12.3421 6 11.9675C5.15519 11.3695 4.52085 10.5199 4.1875 9.54C3.84852 8.54174 3.84852 7.45951 4.1875 6.46125C4.42478 5.76152 4.81704 5.12442 5.335 4.5975C5.92774 3.98343 6.67817 3.54449 7.50395 3.32884C8.32972 3.11319 9.19895 3.12916 10.0163 3.375C10.6547 3.57099 11.2386 3.91342 11.7213 4.375C12.2071 3.89166 12.6921 3.40708 13.1763 2.92125C13.4263 2.66 13.6988 2.41125 13.945 2.14375C13.2082 1.45809 12.3434 0.924569 11.4 0.573748C9.68213 -0.0500151 7.80247 -0.0667781 6.07375 0.526248Z" fill="white"/>
<path d="M6.07375 0.526245C7.80233 -0.067184 9.68199 -0.0508623 11.4 0.572495C12.3435 0.925699 13.208 1.46179 13.9438 2.14999C13.6938 2.41749 13.43 2.66749 13.175 2.92749C12.69 3.41166 12.2054 3.89416 11.7213 4.37499C11.2386 3.91342 10.6547 3.57098 10.0163 3.37499C9.19922 3.1283 8.33002 3.1114 7.50403 3.32617C6.67803 3.54094 5.92714 3.97907 5.33375 4.59249C4.81579 5.11941 4.42353 5.75652 4.18625 6.45624L1.595 4.44999C2.52251 2.6107 4.12844 1.20377 6.07375 0.526245Z" fill="#E33629"/>
<path d="M0.907499 6.4375C1.04678 5.74724 1.278 5.07878 1.595 4.45L4.18625 6.46125C3.84727 7.4595 3.84727 8.54174 4.18625 9.54C3.32292 10.2067 2.45917 10.8767 1.595 11.55C0.801437 9.97039 0.559415 8.17062 0.907499 6.4375Z" fill="#F8BD00"/>
<path d="M8.65875 6.51875H16.0988C16.3532 7.91492 16.2844 9.35084 15.8975 10.7163C15.5415 11.9719 14.8501 13.1067 13.8975 13.9988C13.0613 13.3463 12.2213 12.6988 11.385 12.0463C11.7996 11.7666 12.1535 11.4061 12.4254 10.9864C12.6973 10.5667 12.8817 10.0964 12.9675 9.60375H8.65875C8.6575 8.57625 8.65875 7.5475 8.65875 6.51875Z" fill="#587DBD"/>
<path d="M1.59375 11.55C2.45792 10.8833 3.32167 10.2133 4.185 9.53999C4.51901 10.5202 5.15426 11.3699 6 11.9675C6.52751 12.3403 7.12691 12.5992 7.76 12.7275C8.38382 12.8435 9.02368 12.8435 9.6475 12.7275C10.2695 12.6222 10.8626 12.388 11.3888 12.04C12.225 12.6925 13.065 13.34 13.9012 13.9925C12.9861 14.8247 11.8705 15.4048 10.6637 15.6762C9.33176 15.9894 7.94365 15.9744 6.61875 15.6325C5.57088 15.3527 4.59209 14.8595 3.74375 14.1837C2.84583 13.4709 2.11244 12.5725 1.59375 11.55Z" fill="#319F43"/>
</g>
<defs>
<clipPath id="clip0_2001_82">
<rect width="16" height="16" fill="white" transform="translate(0.5)"/>
</clipPath>
</defs>
</svg>
