<svg width="23" height="22" viewBox="0 0 23 22" fill="none" xmlns="http://www.w3.org/2000/svg">
<path d="M5.78856 19.25C4.70873 19.25 3.83331 18.3517 3.83331 17.2425V9.17401C3.83331 8.56443 4.10373 7.98693 4.56665 7.60651L9.94473 3.19001C10.2883 2.90546 10.7205 2.74976 11.1666 2.74976C11.6128 2.74976 12.0449 2.90546 12.3886 3.19001L17.7657 7.60651C18.2296 7.98693 18.5 8.56443 18.5 9.17401V17.2425C18.5 18.3517 17.6246 19.25 16.5447 19.25H5.78856Z" stroke="#1E3A8A" stroke-width="1.5" stroke-linecap="round" stroke-linejoin="round"/>
<path d="M8.87497 19.25V14.2083C8.87497 13.7221 9.06812 13.2558 9.41194 12.912C9.75576 12.5682 10.2221 12.375 10.7083 12.375H11.625C12.1112 12.375 12.5775 12.5682 12.9213 12.912C13.2651 13.2558 13.4583 13.7221 13.4583 14.2083V19.25" stroke="#1E3A8A" stroke-width="1.5" stroke-linecap="round" stroke-linejoin="round"/>
</svg>
