<svg width="100" height="100" viewBox="0 0 100 100" fill="none" xmlns="http://www.w3.org/2000/svg">
<mask id="mask0_43_347" style="mask-type:luminance" maskUnits="userSpaceOnUse" x="9" y="7" width="82" height="86">
<path d="M50.0001 8.33333L60.9439 16.3167L74.4918 16.2917L78.6522 29.1833L89.6272 37.125L85.4168 50L89.6272 62.875L78.6522 70.8167L74.4918 83.7083L60.9439 83.6833L50.0001 91.6667L39.0564 83.6833L25.5085 83.7083L21.348 70.8167L10.373 62.875L14.5835 50L10.373 37.125L21.348 29.1833L25.5085 16.2917L39.0564 16.3167L50.0001 8.33333Z" fill="white" stroke="white" stroke-width="2" stroke-linecap="round" stroke-linejoin="round"/>
<path d="M35.417 50L45.8337 60.4167L66.667 39.5833" stroke="black" stroke-width="2" stroke-linecap="round" stroke-linejoin="round"/>
</mask>
<g mask="url(#mask0_43_347)">
<path d="M0 0H100V100H0V0Z" fill="#22C55E"/>
</g>
</svg>
