<svg width="88" height="88" viewBox="0 0 88 88" fill="none" xmlns="http://www.w3.org/2000/svg">
<g filter="url(#filter0_d_2120_1307)">
<path fill-rule="evenodd" clip-rule="evenodd" d="M73.2728 29.8775C77.1305 32.6563 79.75 36.9625 79.75 42C79.75 47.0375 77.1305 51.347 73.2728 54.1225C74.0527 58.809 72.8372 63.736 69.285 67.285C65.7263 70.8438 60.8025 72.0267 56.1355 71.2663C53.3698 75.137 49.0245 77.75 44 77.75C38.9625 77.75 34.6465 75.1273 31.8743 71.263C27.2008 72.0267 22.2737 70.847 18.7118 67.285C15.153 63.7263 13.97 58.7992 14.7565 54.1225C10.902 51.3503 8.25 47.0407 8.25 42C8.25 36.9592 10.902 32.6465 14.7565 29.8775C13.97 25.2008 15.153 20.2737 18.715 16.715C22.2672 13.1595 27.1975 11.9472 31.9003 12.7273C34.6563 8.863 38.9722 6.25 44 6.25C49.0213 6.25 53.36 8.85975 56.129 12.7273C60.8155 11.9472 65.736 13.166 69.285 16.715C72.834 20.264 74.056 25.191 73.2728 29.8775ZM58.8882 29.6045C59.2357 29.8524 59.5309 30.1664 59.757 30.5284C59.9831 30.8905 60.1356 31.2935 60.206 31.7145C60.2763 32.1355 60.263 32.5663 60.1668 32.9821C60.0706 33.398 59.8935 33.7909 59.6455 34.1383L43.3955 56.8882C43.1212 57.2724 42.7665 57.5923 42.356 57.8255C41.9456 58.0587 41.4893 58.1997 41.0188 58.2387C40.5483 58.2777 40.075 58.2137 39.6318 58.0512C39.1886 57.8887 38.786 57.6316 38.4523 57.2978L28.7023 47.5477C28.1102 46.9348 27.7827 46.1138 27.7901 45.2617C27.7975 44.4096 28.1393 43.5944 28.7418 42.9918C29.3444 42.3893 30.1596 42.0475 31.0117 42.0401C31.8638 42.0327 32.6848 42.3602 33.2977 42.9523L40.334 49.9885L54.3545 30.3585C54.8557 29.6573 55.615 29.184 56.4652 29.0426C57.3155 28.9012 58.187 29.1033 58.8882 29.6045Z" fill="#319F43"/>
</g>
<defs>
<filter id="filter0_d_2120_1307" x="-3" y="-3" width="94" height="94" filterUnits="userSpaceOnUse" color-interpolation-filters="sRGB">
<feFlood flood-opacity="0" result="BackgroundImageFix"/>
<feColorMatrix in="SourceAlpha" type="matrix" values="0 0 0 0 0 0 0 0 0 0 0 0 0 0 0 0 0 0 127 0" result="hardAlpha"/>
<feOffset dy="2"/>
<feGaussianBlur stdDeviation="4"/>
<feComposite in2="hardAlpha" operator="out"/>
<feColorMatrix type="matrix" values="0 0 0 0 0 0 0 0 0 0 0 0 0 0 0 0 0 0 0.25 0"/>
<feBlend mode="normal" in2="BackgroundImageFix" result="effect1_dropShadow_2120_1307"/>
<feBlend mode="normal" in="SourceGraphic" in2="effect1_dropShadow_2120_1307" result="shape"/>
</filter>
</defs>
</svg>
